<svg width="916" height="718" viewBox="0 0 916 718" fill="none" xmlns="http://www.w3.org/2000/svg">
<path d="M150.656 603.856V596.048C150.656 590.736 149.44 588.24 147.456 587.536V586.32H162.944V587.536C161.792 588.048 161.024 590.608 161.024 596.048V605.84C156.672 609.04 151.36 610.832 145.216 610.832C131.2 610.832 122.88 602.256 122.88 587.856C122.88 573.072 131.648 564.368 146.304 564.368C151.424 564.368 156.352 565.456 160.128 567.312L158.464 578.128C152.768 572.752 148.544 570.384 145.024 570.384C138.368 570.384 134.464 576.08 134.464 585.872C134.464 597.456 139.264 604.496 147.008 604.496C148.416 604.496 149.632 604.24 150.656 603.856ZM181.062 591.824V600.208C181.062 605.648 182.023 608.208 183.623 608.784V610H167.303V608.784C168.903 608.208 169.863 605.648 169.863 600.208V574.928C169.863 569.488 168.903 566.992 167.303 566.416V565.2H185.991C196.743 565.2 203.591 570.384 203.591 578.512C203.591 583.76 200.711 587.792 195.783 590.032C197.703 591.12 199.047 592.592 199.815 594.384L202.247 600.208C204.359 605.712 206.215 608.208 207.623 608.784L207.687 610H194.759L193.607 608.848L188.807 595.536C187.975 593.232 186.183 591.824 184.007 591.824H181.062ZM185.991 571.088H181.062V585.936H185.991C189.639 585.936 191.943 583.056 191.943 578.512C191.943 573.968 189.639 571.088 185.991 571.088ZM210.255 587.6C210.255 573.456 218.447 564.368 231.247 564.368C243.983 564.368 252.175 573.456 252.175 587.6C252.175 601.744 243.983 610.832 231.247 610.832C218.447 610.832 210.255 601.744 210.255 587.6ZM221.967 587.6C221.967 598.288 225.551 605.008 231.247 605.008C236.943 605.008 240.527 598.288 240.527 587.6C240.527 576.912 236.943 570.128 231.247 570.128C225.551 570.128 221.967 576.912 221.967 587.6ZM257.943 587.6C257.943 573.456 266.135 564.368 278.935 564.368C291.671 564.368 299.863 573.456 299.863 587.6C299.863 601.744 291.671 610.832 278.935 610.832C266.135 610.832 257.943 601.744 257.943 587.6ZM269.655 587.6C269.655 598.288 273.239 605.008 278.935 605.008C284.631 605.008 288.215 598.288 288.215 587.6C288.215 576.912 284.631 570.128 278.935 570.128C273.239 570.128 269.655 576.912 269.655 587.6ZM305.822 565.2H320.99L332.51 593.296L344.03 565.2H358.558V566.416C357.022 566.992 356.126 569.488 356.318 574.928L357.214 600.208C357.406 605.648 358.43 608.208 360.03 608.784V610H344.03V608.784C345.63 608.144 346.526 605.648 346.334 600.208L345.502 576.784L333.79 606.928L327.262 607.44L315.358 576.784L314.59 598.8C314.398 605.072 315.23 608.144 316.83 608.784V610H304.35V608.784C305.95 608.208 307.038 605.072 307.23 598.8L308.062 574.928C308.254 569.488 307.422 566.992 305.822 566.416V565.2ZM377.625 574.928V600.208C377.625 605.648 378.585 608.144 380.185 608.784V610H363.865V608.784C365.465 608.208 366.425 605.648 366.425 600.208V574.928C366.425 569.488 365.465 566.992 363.865 566.416V565.2H380.185V566.416C378.585 566.992 377.625 569.552 377.625 574.928ZM384.678 566.416V565.2H398.438L416.55 590.416V576.336C416.55 570 415.59 566.992 413.99 566.416V565.2H426.598V566.416C424.998 566.992 424.038 570.064 424.038 576.4V610.192H417.51L394.79 578.704V598.8C394.79 605.072 395.75 608.144 397.35 608.784V610H384.678V608.784C386.278 608.208 387.238 605.136 387.238 598.8V574.928C387.238 569.488 386.278 566.992 384.678 566.416ZM459.344 603.856V596.048C459.344 590.736 458.128 588.24 456.144 587.536V586.32H471.632V587.536C470.48 588.048 469.712 590.608 469.712 596.048V605.84C465.36 609.04 460.048 610.832 453.904 610.832C439.888 610.832 431.568 602.256 431.568 587.856C431.568 573.072 440.336 564.368 454.992 564.368C460.112 564.368 465.04 565.456 468.816 567.312L467.152 578.128C461.456 572.752 457.232 570.384 453.712 570.384C447.056 570.384 443.152 576.08 443.152 585.872C443.152 597.456 447.952 604.496 455.696 604.496C457.104 604.496 458.32 604.24 459.344 603.856ZM531.038 591.184C530.462 594.96 529.118 598.352 527.134 601.232L531.486 605.776C533.47 607.696 535.71 609.104 537.054 609.36V610H520.99L519.326 608.272C515.998 610 512.158 610.96 507.998 610.96C498.142 610.96 491.486 605.584 491.486 597.2C491.486 591.12 495.006 587.28 499.23 584.528C497.694 581.456 496.99 578.64 496.99 575.952C496.99 568.784 501.982 564.24 509.982 564.24C517.598 564.24 522.526 568.784 522.526 575.504C522.526 581.712 518.302 584.72 513.694 587.024C514.782 588.176 515.934 589.456 517.214 590.8L520.926 594.64C521.374 593.552 521.694 592.4 522.014 591.184C522.462 589.328 522.142 588.048 521.054 586.96V586.32H533.854V586.96C531.934 588.88 531.23 589.968 531.038 591.184ZM507.998 579.92C511.198 578.384 513.566 577.04 513.566 575.184C513.566 573.712 512.094 572.56 509.918 572.56C507.678 572.56 506.27 573.712 506.27 575.504C506.27 576.592 506.846 578.064 507.998 579.92ZM504.414 592.272C503.134 593.424 502.366 594.832 502.366 596.624C502.366 600.272 505.566 602.64 510.046 602.64C511.262 602.64 512.414 602.448 513.438 602.128L509.15 597.648C507.358 595.728 505.758 593.936 504.414 592.272ZM555.94 607.312L557.54 596.688C563.3 602.192 568.292 604.88 573.156 604.88C577.188 604.88 579.3 603.28 579.3 600.208C579.3 597.072 577.316 595.344 571.364 592.848C560.868 588.752 556.068 583.952 556.068 576.784C556.068 568.848 562.084 564.368 573.412 564.368C578.724 564.368 582.82 565.392 586.916 567.696L585.316 578.32C580.196 572.88 575.908 570.32 571.812 570.32C568.484 570.32 566.692 571.792 566.692 574.672C566.692 577.808 568.676 579.6 574.756 582.096C585.188 586.128 589.924 590.8 589.924 597.904C589.924 606.224 583.332 610.832 570.724 610.832C564.58 610.832 560.228 609.68 555.94 607.312ZM634.42 575.248V593.424C634.42 604.112 627.188 610.832 615.732 610.832C604.212 610.832 596.98 604.112 596.98 593.424V573.776C596.98 569.104 596.02 566.928 594.42 566.416V565.2H610.74V566.416C609.14 566.928 608.18 569.104 608.18 573.712V594C608.18 599.76 611.764 603.28 617.46 603.28C623.22 603.28 626.74 599.76 626.74 594V575.184C626.74 569.616 625.78 566.928 624.18 566.416V565.2H636.98V566.416C635.38 566.928 634.42 569.68 634.42 575.248ZM654.875 591.824V600.208C654.875 605.584 656.091 608.08 658.075 608.784V610H641.115V608.784C642.715 608.208 643.675 605.648 643.675 600.208V574.928C643.675 569.488 642.715 566.992 641.115 566.416V565.2H659.867C670.555 565.2 677.467 570.384 677.467 578.512C677.467 586.64 670.555 591.824 659.867 591.824H654.875ZM659.867 571.088H654.875V585.936H659.867C663.515 585.936 665.755 583.056 665.755 578.512C665.755 573.968 663.515 571.088 659.867 571.088ZM695.5 591.824V600.208C695.5 605.584 696.716 608.08 698.7 608.784V610H681.74V608.784C683.34 608.208 684.3 605.648 684.3 600.208V574.928C684.3 569.488 683.34 566.992 681.74 566.416V565.2H700.492C711.18 565.2 718.092 570.384 718.092 578.512C718.092 586.64 711.18 591.824 700.492 591.824H695.5ZM700.492 571.088H695.5V585.936H700.492C704.14 585.936 706.38 583.056 706.38 578.512C706.38 573.968 704.14 571.088 700.492 571.088ZM754.749 610H722.365V608.784C723.965 608.208 724.925 605.648 724.925 600.208V574.928C724.925 569.488 723.965 566.992 722.365 566.416V565.2H738.685V566.416C737.085 566.992 736.125 569.552 736.125 574.928V604.048H746.045C750.333 604.048 753.149 602.128 753.981 598.928H756.285L754.749 610ZM781.039 608.784V610H764.719V608.784C766.319 608.208 767.279 605.648 767.279 600.208V593.168L757.359 574.928C754.543 569.552 752.303 566.864 750.575 566.352V565.2H768.687L768.751 566.352C767.087 566.928 766.958 569.616 769.391 574.928L775.087 585.744L780.399 575.568C783.023 569.872 783.215 566.928 781.487 566.352V565.2H795.055L794.991 566.352C793.327 566.8 791.151 569.616 788.015 575.568L778.479 593.232V600.208C778.479 605.648 779.439 608.144 781.039 608.784Z" fill="black"/>
<path d="M430.024 651.368C434.824 651.368 439.496 652.456 443.016 654.312L441.416 665.128C436.232 659.752 432.392 657.384 429.128 657.384C422.984 657.384 419.464 662.76 419.464 671.72C419.464 683.304 424.648 690.216 433.352 690.216C436.552 690.216 439.688 689.256 442.056 687.528L443.464 692.84C439.368 696.04 434.44 697.832 428.744 697.832C415.688 697.832 407.88 689.256 407.88 674.856C407.88 660.072 416.136 651.368 430.024 651.368ZM448.755 674.6C448.755 660.456 456.947 651.368 469.747 651.368C482.483 651.368 490.675 660.456 490.675 674.6C490.675 688.744 482.483 697.832 469.747 697.832C456.947 697.832 448.755 688.744 448.755 674.6ZM460.467 674.6C460.467 685.288 464.051 692.008 469.747 692.008C475.443 692.008 479.027 685.288 479.027 674.6C479.027 663.912 475.443 657.128 469.747 657.128C464.051 657.128 460.467 663.912 460.467 674.6ZM495.065 691.176C495.065 687.272 497.625 684.712 501.529 684.712C505.369 684.712 507.993 687.272 507.993 691.176C507.993 695.016 505.369 697.64 501.529 697.64C497.625 697.64 495.065 695.016 495.065 691.176Z" fill="black"/>
<line x1="119.986" y1="671.5" x2="373.986" y2="670.5" stroke="black" stroke-width="7"/>
<line x1="541.986" y1="671.5" x2="795.986" y2="670.5" stroke="black" stroke-width="7"/>
<path d="M105.341 98.4158L105.157 93.5553L160.158 91.4759L236.365 189.531L234.237 133.251C233.28 107.925 228.988 96.0469 222.505 93.9863L222.322 89.1258L272.718 87.2206L272.901 92.0811C266.593 94.6252 263.22 107.05 264.177 132.375L269.284 267.447L243.19 268.433L147.617 146.005L150.654 226.331C151.602 251.401 155.903 263.536 162.395 265.852L162.579 270.712L111.927 272.627L111.743 267.767C118.052 265.223 121.425 252.798 120.467 227.472L116.86 132.053C116.038 110.308 111.823 100.476 105.341 98.4158Z" fill="black"/>
<path d="M356.034 241.439L398.014 240.902C414.909 240.686 425.831 233.89 429.015 222.584L438.486 222.463L433.132 264.263L301.303 265.949L301.241 261.085C307.611 258.7 311.319 248.411 311.041 226.653L309.748 125.541C309.47 103.783 305.503 93.849 299.074 91.627L299.011 86.7634L428.025 85.1136L434.699 126.504L425.227 126.625C421.759 115.66 410.663 108.89 393.769 109.106L354.348 109.61L355.026 162.597L375.504 162.336C391.119 162.136 400.531 157.407 403.249 149.692L411.184 149.59L411.799 197.714L403.864 197.816C400.95 190.172 391.42 185.686 375.805 185.886L355.327 186.147L356.034 241.439Z" fill="black"/>
<path d="M514.667 192.01L514.287 225.544C514.04 247.303 517.763 257.585 524.137 259.962L524.082 264.826L458.806 264.085L458.861 259.221C465.287 256.99 469.243 246.794 469.49 225.035L470.637 123.922C470.884 102.163 467.158 92.1364 460.784 89.7599L460.84 84.8962L535.587 85.7447C578.592 86.2328 605.747 107.278 605.378 139.788C605.14 160.779 593.437 176.775 573.625 185.511C581.255 189.95 586.564 195.898 589.554 203.101L599.017 226.506C607.215 248.616 614.525 258.684 620.131 261.052L620.331 265.918L568.623 265.331L564.067 260.671L545.473 207.209C542.25 197.956 535.146 192.243 526.443 192.144L514.667 192.01ZM535.32 109.295L515.609 109.071L514.935 168.46L534.645 168.683C549.236 168.849 558.583 157.434 558.789 139.259C558.995 121.085 549.911 109.461 535.32 109.295Z" fill="black"/>
<path d="M723.101 90.2706C774.009 92.1952 805.438 128.224 803.368 182.969C801.308 237.458 767.239 271.267 716.331 269.343L636.26 266.316L636.444 261.455C642.927 259.394 647.151 249.307 647.973 227.562L651.793 126.515C652.615 104.77 649.155 94.6481 642.847 92.104L643.03 87.2435L723.101 90.2706ZM717.231 245.552C739.998 246.412 755.282 221.628 756.819 180.953C758.347 140.534 744.979 114.667 722.211 113.806L697.141 112.858L692.161 244.604L717.231 245.552Z" fill="black"/>
<path d="M99.1782 495.545L19.8863 498.832L19.6849 493.972C25.984 491.405 29.3966 481.015 28.4953 459.274L24.3073 358.24C23.406 336.499 19.1558 326.683 12.6659 324.646L12.4645 319.786L88.9428 316.616C129.868 314.919 157.232 332.233 158.42 360.88C159.162 378.785 150.015 393 133.473 401.885C155.276 408.667 168.701 423.484 169.518 443.179C170.758 473.105 143.428 493.711 99.1782 495.545ZM68.4327 341.038L70.6168 393.729L91.0793 392.881C104.636 392.319 112.407 382.004 111.718 365.378C111.05 349.264 102.451 339.628 88.8951 340.19L68.4327 341.038ZM71.5817 417.005L73.8931 472.765L98.9595 471.726C114.306 471.09 123.325 459.955 122.604 442.562C121.904 425.68 111.995 415.33 96.6481 415.966L71.5817 417.005Z" fill="black"/>
<path d="M249.856 466.827L291.83 465.889C308.721 465.512 319.578 458.612 322.653 447.276L332.123 447.064L327.169 488.914L195.362 491.859L195.253 486.996C201.6 484.55 205.21 474.227 204.724 452.472L202.465 351.377C201.979 329.623 197.917 319.727 191.467 317.566L191.358 312.704L320.35 309.821L327.419 351.146L317.949 351.357C314.376 340.426 303.217 333.762 286.325 334.139L246.911 335.02L248.094 387.999L268.569 387.541C284.181 387.192 293.548 382.374 296.192 374.633L304.126 374.456L305.201 422.572L297.267 422.749C294.28 415.134 284.708 410.739 269.096 411.087L248.621 411.545L249.856 466.827Z" fill="black"/>
<path d="M398.736 488.27L346 488.372L345.991 483.508C352.896 480.167 360.812 469.656 369.983 446.598L424.757 309.531L454.706 307.681L512.324 448.881C520.814 470.625 528.77 480.593 535.687 483.14L535.952 488.003L465.808 488.14L465.543 483.276C472.45 480.703 474.74 473.786 470.108 461.251L462.391 442.066L401.975 442.184L395.351 458.837C390.257 472.414 392.065 480.347 398.727 483.406L398.736 488.27ZM432.024 360.461L410.376 418.359L453.896 418.275L432.024 360.461Z" fill="black"/>
<path d="M607.931 416.718L607.274 450.247C606.847 472.003 610.486 482.316 616.839 484.745L616.744 489.608L551.477 488.329L551.572 483.466C558.016 481.288 562.056 471.125 562.482 449.369L564.464 348.269C564.891 326.513 561.247 316.455 554.893 314.026L554.989 309.163L629.726 310.628C672.726 311.471 699.706 332.74 699.069 365.246C698.658 386.234 686.824 402.133 666.94 410.705C674.533 415.207 679.793 421.199 682.724 428.426L691.993 451.908C700.008 474.085 707.235 484.213 712.821 486.627L712.982 491.495L661.28 490.481L656.763 485.784L638.61 432.17C635.463 422.89 628.407 417.119 619.705 416.948L607.931 416.718ZM629.265 334.176L609.557 333.79L608.393 393.17L628.101 393.557C642.69 393.843 652.13 382.505 652.486 364.333C652.842 346.16 643.854 334.462 629.265 334.176Z" fill="black"/>
<path d="M816.355 316.184C867.257 318.254 898.584 354.372 896.359 409.111C894.144 463.594 859.979 497.306 809.077 495.237L729.015 491.982L729.212 487.122C735.701 485.08 739.953 475.004 740.837 453.262L744.944 352.226C745.828 330.484 742.397 320.352 736.096 317.79L736.293 312.93L816.355 316.184ZM810.044 471.448C832.809 472.374 848.162 447.633 849.816 406.962C851.459 366.548 838.164 340.642 815.399 339.717L790.331 338.698L784.976 470.429L810.044 471.448Z" fill="black"/>
</svg>
